<svg xmlns="http://www.w3.org/2000/svg" viewBox="0 0 62.41 2816.06"><title>linea</title><g id="Layer_2" data-name="Layer 2"><g id="Capa_1" data-name="Capa 1"><g opacity="0.7"><path d="M62.41,241.74a31,31,0,0,0-28-30.83V151.7a31,31,0,0,0,0-61.66V0h-6V90a31,31,0,0,0,0,61.66v59.2a31,31,0,0,0,0,61.66v59.2a31,31,0,0,0,0,61.66v59.2a31,31,0,0,0,0,61.66v59.2a31,31,0,0,0,0,61.66v59.2a31,31,0,0,0,0,61.66v59.2a31,31,0,0,0,0,61.66v59.2a31,31,0,0,0,0,61.66V1057a31,31,0,0,0,0,61.66v59.17a31,31,0,0,0,0,61.73v59.14a31,31,0,0,0,0,61.73v59.14a31,31,0,0,0,0,61.73v59.14a31,31,0,0,0,0,61.73v59.14a31,31,0,0,0,0,61.73v59.14a31,31,0,0,0,0,61.73V1903a31,31,0,0,0,0,61.73v59.14a31,31,0,0,0,0,61.73v59.14a31,31,0,0,0,0,61.73v59.14a31,31,0,0,0,0,61.73v59.14a31,31,0,0,0,0,61.73v59.14a31,31,0,0,0,0,61.73v59.14a31,31,0,0,0,0,61.73v64.27a31,31,0,1,0,6,.08v-64.43a31,31,0,0,0,0-61.56V2569a31,31,0,0,0,0-61.56v-59.3a31,31,0,0,0,0-61.56v-59.3a31,31,0,0,0,0-61.56v-59.3a31,31,0,0,0,0-61.56v-59.3a31,31,0,0,0,0-61.56v-59.3a31,31,0,0,0,0-61.56v-59.3a31,31,0,0,0,0-61.56v-59.3a31,31,0,0,0,0-61.56v-59.3a31,31,0,0,0,0-61.56v-59.3a31,31,0,0,0,0-61.56v-59.3a31,31,0,0,0,0-61.56v-59.3a31,31,0,0,0,0-61.56v-59.25a31,31,0,0,0,0-61.66v-59.2a31,31,0,0,0,0-61.66V876.9a31,31,0,0,0,0-61.66V756a31,31,0,0,0,0-61.66v-59.2a31,31,0,0,0,0-61.66V514.3a31,31,0,0,0,0-61.66v-59.2a31,31,0,0,0,0-61.66v-59.2A31,31,0,0,0,62.41,241.74Z" fill="#232f41"/><path d="M12.23,130.05v-1.5l7.42-10a3.57,3.57,0,0,0-5.72-4.27,3.37,3.37,0,0,0-.7,1.8h-1.5a5.15,5.15,0,0,1,1-2.7,5.09,5.09,0,0,1,7.07-1.07,5.15,5.15,0,0,1,1,7.12l-6.8,9.15h7.77v1.5Z" fill="#d8d8d8"/><path d="M25.88,121.68h-1.5v-1.75h1.5Zm0,8.37h-1.5V128.3h1.5Z" fill="#d8d8d8"/><path d="M28.38,116.36a5.06,5.06,0,0,1,10.12,0V125a5.06,5.06,0,0,1-10.12,0Zm1.5,8.65A3.56,3.56,0,0,0,37,125v-8.65a3.56,3.56,0,0,0-7.12,0Z" fill="#d8d8d8"/><path d="M41,116.36a5.06,5.06,0,0,1,10.12,0V125A5.06,5.06,0,0,1,41,125Zm1.5,8.65a3.56,3.56,0,0,0,7.12,0v-8.65a3.56,3.56,0,0,0-7.12,0Z" fill="#d8d8d8"/><path d="M11.74,237a5.06,5.06,0,1,1,7.7,4.32,5.06,5.06,0,0,1-2.65,9.37,5,5,0,0,1-5-5h1.5a3.56,3.56,0,1,0,3.55-3.57v-1.5A3.56,3.56,0,1,0,13.24,237Z" fill="#d8d8d8"/><path d="M25.87,242.33h-1.5v-1.75h1.5Zm0,8.37h-1.5V249h1.5Z" fill="#d8d8d8"/><path d="M28.37,237a5.06,5.06,0,0,1,10.12,0v8.65a5.06,5.06,0,0,1-10.12,0Zm1.5,8.65a3.56,3.56,0,0,0,7.12,0V237a3.56,3.56,0,0,0-7.12,0Z" fill="#d8d8d8"/><path d="M41,237a5.06,5.06,0,0,1,10.12,0v8.65a5.06,5.06,0,0,1-10.12,0Zm1.5,8.65a3.56,3.56,0,0,0,7.12,0V237a3.56,3.56,0,0,0-7.12,0Z" fill="#d8d8d8"/><path d="M11.81,364.64,17,352.89h1.63l-5.2,11.75h6.87v-5.5h1.5v12.5h-1.5v-5.5h-8.5Z" fill="#d8d8d8"/><path d="M25.81,363.27h-1.5v-1.75h1.5Zm0,8.37h-1.5v-1.75h1.5Z" fill="#d8d8d8"/><path d="M28.31,357.94a5.06,5.06,0,0,1,10.12,0v8.65a5.06,5.06,0,0,1-10.12,0Zm1.5,8.65a3.56,3.56,0,0,0,7.12,0v-8.65a3.56,3.56,0,0,0-7.12,0Z" fill="#d8d8d8"/><path d="M40.93,357.94a5.06,5.06,0,0,1,10.12,0v8.65a5.06,5.06,0,0,1-10.12,0Zm1.5,8.65a3.56,3.56,0,0,0,7.12,0v-8.65a3.56,3.56,0,0,0-7.12,0Z" fill="#d8d8d8"/><path d="M11.26,473.73h11.1v1.5h-9.6V481a6.25,6.25,0,1,1-1.07,9.7l1.07-1.07a4.74,4.74,0,1,0,0-6.7h-1.5Z" fill="#d8d8d8"/><path d="M26.36,484.1h-1.5v-1.75h1.5Zm0,8.37h-1.5v-1.75h1.5Z" fill="#d8d8d8"/><path d="M28.86,478.78a5.06,5.06,0,0,1,10.12,0v8.65a5.06,5.06,0,0,1-10.12,0Zm1.5,8.65a3.56,3.56,0,0,0,7.12,0v-8.65a3.56,3.56,0,0,0-7.12,0Z" fill="#d8d8d8"/><path d="M41.48,478.78a5.06,5.06,0,0,1,10.12,0v8.65a5.06,5.06,0,0,1-10.12,0Zm1.5,8.65a3.56,3.56,0,0,0,7.12,0v-8.65a3.56,3.56,0,0,0-7.12,0Z" fill="#d8d8d8"/><path d="M16.79,594.48h1.75l-3.82,6.62a6.16,6.16,0,0,1,5.2.48,6.24,6.24,0,1,1-8.52,2.27ZM14.44,611.1a4.74,4.74,0,1,0-1.75-6.5A4.74,4.74,0,0,0,14.44,611.1Z" fill="#d8d8d8"/><path d="M27.07,604.85h-1.5V603.1h1.5Zm0,8.37h-1.5v-1.75h1.5Z" fill="#d8d8d8"/><path d="M29.57,599.53a5.06,5.06,0,0,1,10.12,0v8.65a5.06,5.06,0,0,1-10.12,0Zm1.5,8.65a3.56,3.56,0,0,0,7.12,0v-8.65a3.56,3.56,0,0,0-7.12,0Z" fill="#d8d8d8"/><path d="M42.2,599.53a5.06,5.06,0,0,1,10.12,0v8.65a5.06,5.06,0,0,1-10.12,0Zm1.5,8.65a3.56,3.56,0,0,0,7.12,0v-8.65a3.56,3.56,0,0,0-7.12,0Z" fill="#d8d8d8"/><path d="M11.74,715.59H21.87v1.5l-7.6,17.25h-1.7l7.62-17.25H11.74Z" fill="#d8d8d8"/><path d="M25.87,726h-1.5v-1.75h1.5Zm0,8.37h-1.5v-1.75h1.5Z" fill="#d8d8d8"/><path d="M28.37,720.64a5.06,5.06,0,0,1,10.12,0v8.65a5.06,5.06,0,0,1-10.12,0Zm1.5,8.65a3.56,3.56,0,0,0,7.12,0v-8.65a3.56,3.56,0,0,0-7.12,0Z" fill="#d8d8d8"/><path d="M41,720.64a5.06,5.06,0,0,1,10.12,0v8.65a5.06,5.06,0,0,1-10.12,0Zm1.5,8.65a3.56,3.56,0,0,0,7.12,0v-8.65a3.56,3.56,0,0,0-7.12,0Z" fill="#d8d8d8"/><path d="M16.81,836.63a3.86,3.86,0,0,1,3.87,3.87,3.8,3.8,0,0,1-1.32,2.92,6.24,6.24,0,1,1-5.12,0,3.89,3.89,0,0,1,2.57-6.8Zm0,17.25a4.75,4.75,0,1,0-4.75-4.75A4.75,4.75,0,0,0,16.81,853.88Zm0-11a2.37,2.37,0,1,0-2.37-2.37A2.37,2.37,0,0,0,16.81,842.88Z" fill="#d8d8d8"/><path d="M27.06,847h-1.5v-1.75h1.5Zm0,8.37h-1.5v-1.75h1.5Z" fill="#d8d8d8"/><path d="M29.56,841.68a5.06,5.06,0,0,1,10.12,0v8.65a5.06,5.06,0,0,1-10.12,0Zm1.5,8.65a3.56,3.56,0,0,0,7.12,0v-8.65a3.56,3.56,0,0,0-7.12,0Z" fill="#d8d8d8"/><path d="M42.18,841.68a5.06,5.06,0,0,1,10.12,0v8.65a5.06,5.06,0,0,1-10.12,0Zm1.5,8.65a3.56,3.56,0,0,0,7.12,0v-8.65a3.56,3.56,0,0,0-7.12,0Z" fill="#d8d8d8"/><path d="M16.82,976.07H15.07l3.82-6.62a6.16,6.16,0,0,1-5.2-.48,6.24,6.24,0,1,1,8.52-2.27Zm2.35-16.62a4.74,4.74,0,1,0,1.75,6.5A4.74,4.74,0,0,0,19.17,959.45Z" fill="#d8d8d8"/><path d="M27.07,967.67h-1.5v-1.75h1.5Zm0,8.37h-1.5v-1.75h1.5Z" fill="#d8d8d8"/><path d="M29.57,962.35a5.06,5.06,0,0,1,10.12,0V971a5.06,5.06,0,0,1-10.12,0Zm1.5,8.65a3.56,3.56,0,0,0,7.12,0v-8.65a3.56,3.56,0,0,0-7.12,0Z" fill="#d8d8d8"/><path d="M42.2,962.35a5.06,5.06,0,0,1,10.12,0V971a5.06,5.06,0,0,1-10.12,0ZM43.7,971a3.56,3.56,0,0,0,7.12,0v-8.65a3.56,3.56,0,0,0-7.12,0Z" fill="#d8d8d8"/><path d="M11.74,1097h-1.5v-17.25h-1v-1.5h2.5Z" fill="#d8d8d8"/><path d="M14.24,1083.29a5.06,5.06,0,0,1,10.12,0v8.65a5.06,5.06,0,0,1-10.12,0Zm1.5,8.65a3.56,3.56,0,0,0,7.12,0v-8.65a3.56,3.56,0,0,0-7.12,0Z" fill="#d8d8d8"/><path d="M28.37,1088.61h-1.5v-1.75h1.5Zm0,8.37h-1.5v-1.75h1.5Z" fill="#d8d8d8"/><path d="M30.87,1083.29a5.06,5.06,0,0,1,10.12,0v8.65a5.06,5.06,0,0,1-10.12,0Zm1.5,8.65a3.56,3.56,0,0,0,7.12,0v-8.65a3.56,3.56,0,0,0-7.12,0Z" fill="#d8d8d8"/><path d="M43.49,1083.29a5.06,5.06,0,0,1,10.12,0v8.65a5.06,5.06,0,0,1-10.12,0Zm1.5,8.65a3.56,3.56,0,0,0,7.12,0v-8.65a3.56,3.56,0,0,0-7.12,0Z" fill="#d8d8d8"/><path d="M15.1,1217.92H13.6v-17.25h-1v-1.5h2.5Z" fill="#d8d8d8"/><path d="M20.1,1217.92H18.6v-17.25h-1v-1.5h2.5Z" fill="#d8d8d8"/><path d="M24.1,1209.55H22.6v-1.75h1.5Zm0,8.37H22.6v-1.75h1.5Z" fill="#d8d8d8"/><path d="M26.6,1204.23a5.06,5.06,0,0,1,10.12,0v8.65a5.06,5.06,0,0,1-10.12,0Zm1.5,8.65a3.56,3.56,0,0,0,7.12,0v-8.65a3.56,3.56,0,0,0-7.12,0Z" fill="#d8d8d8"/><path d="M39.23,1204.23a5.06,5.06,0,0,1,10.12,0v8.65a5.06,5.06,0,0,1-10.12,0Zm1.5,8.65a3.56,3.56,0,0,0,7.12,0v-8.65a3.56,3.56,0,0,0-7.12,0Z" fill="#d8d8d8"/><path d="M11.28,1338.4H9.78v-17.25h-1v-1.5h2.5Z" fill="#d8d8d8"/><path d="M14.28,1338.4v-1.5l7.42-10A3.57,3.57,0,0,0,16,1322.6a3.37,3.37,0,0,0-.7,1.8h-1.5a5.15,5.15,0,0,1,1-2.7,5.09,5.09,0,0,1,7.07-1.07,5.15,5.15,0,0,1,1,7.12l-6.8,9.15H23.9v1.5Z" fill="#d8d8d8"/><path d="M27.93,1330h-1.5v-1.75h1.5Zm0,8.37h-1.5v-1.75h1.5Z" fill="#d8d8d8"/><path d="M30.43,1324.7a5.06,5.06,0,0,1,10.12,0v8.65a5.06,5.06,0,0,1-10.12,0Zm1.5,8.65a3.56,3.56,0,0,0,7.12,0v-8.65a3.56,3.56,0,0,0-7.12,0Z" fill="#d8d8d8"/><path d="M43.05,1324.7a5.06,5.06,0,0,1,10.12,0v8.65a5.06,5.06,0,0,1-10.12,0Zm1.5,8.65a3.56,3.56,0,0,0,7.12,0v-8.65a3.56,3.56,0,0,0-7.12,0Z" fill="#d8d8d8"/><path d="M11.29,1459.71H9.79v-17.25h-1V1441h2.5Z" fill="#d8d8d8"/><path d="M13.79,1446a5.06,5.06,0,1,1,7.7,4.32,5.06,5.06,0,0,1-2.65,9.37,5,5,0,0,1-5-5h1.5a3.56,3.56,0,1,0,3.55-3.57v-1.5a3.56,3.56,0,1,0-3.55-3.57Z" fill="#d8d8d8"/><path d="M27.91,1451.33h-1.5v-1.75h1.5Zm0,8.37h-1.5V1458h1.5Z" fill="#d8d8d8"/><path d="M30.42,1446a5.06,5.06,0,0,1,10.12,0v8.65a5.06,5.06,0,0,1-10.12,0Zm1.5,8.65a3.56,3.56,0,0,0,7.12,0V1446a3.56,3.56,0,0,0-7.12,0Z" fill="#d8d8d8"/><path d="M43,1446a5.06,5.06,0,0,1,10.12,0v8.65a5.06,5.06,0,0,1-10.12,0Zm1.5,8.65a3.56,3.56,0,0,0,7.12,0V1446a3.56,3.56,0,0,0-7.12,0Z" fill="#d8d8d8"/><path d="M11.35,1580.45H9.85V1563.2h-1v-1.5h2.5Z" fill="#d8d8d8"/><path d="M13.85,1573.45l5.2-11.75h1.63l-5.2,11.75h6.87v-5.5h1.5v12.5h-1.5v-5.5h-8.5Z" fill="#d8d8d8"/><path d="M27.85,1572.07h-1.5v-1.75h1.5Zm0,8.37h-1.5v-1.75h1.5Z" fill="#d8d8d8"/><path d="M30.35,1566.75a5.06,5.06,0,0,1,10.12,0v8.65a5.06,5.06,0,0,1-10.12,0Zm1.5,8.65a3.56,3.56,0,0,0,7.12,0v-8.65a3.56,3.56,0,0,0-7.12,0Z" fill="#d8d8d8"/><path d="M43,1566.75a5.06,5.06,0,0,1,10.12,0v8.65a5.06,5.06,0,0,1-10.12,0Zm1.5,8.65a3.56,3.56,0,0,0,7.12,0v-8.65a3.56,3.56,0,0,0-7.12,0Z" fill="#d8d8d8"/><path d="M10.8,1701.09H9.3v-17.25h-1v-1.5h2.5Z" fill="#d8d8d8"/><path d="M13.3,1682.34H24.4v1.5H14.8v5.72a6.25,6.25,0,1,1-1.07,9.7l1.07-1.07a4.74,4.74,0,1,0,0-6.7H13.3Z" fill="#d8d8d8"/><path d="M28.4,1692.71H26.9V1691h1.5Zm0,8.37H26.9v-1.75h1.5Z" fill="#d8d8d8"/><path d="M30.9,1687.39a5.06,5.06,0,0,1,10.12,0V1696a5.06,5.06,0,0,1-10.12,0Zm1.5,8.65a3.56,3.56,0,0,0,7.12,0v-8.65a3.56,3.56,0,0,0-7.12,0Z" fill="#d8d8d8"/><path d="M43.53,1687.39a5.06,5.06,0,0,1,10.12,0V1696a5.06,5.06,0,0,1-10.12,0ZM45,1696a3.56,3.56,0,0,0,7.12,0v-8.65a3.56,3.56,0,0,0-7.12,0Z" fill="#d8d8d8"/><path d="M10.09,1821.73H8.59v-17.25h-1V1803h2.5Z" fill="#d8d8d8"/><path d="M18.84,1803h1.75l-3.82,6.62a6.16,6.16,0,0,1,5.2.47,6.24,6.24,0,1,1-8.52,2.28Zm-2.35,16.62a4.74,4.74,0,1,0-1.75-6.5A4.74,4.74,0,0,0,16.49,1819.61Z" fill="#d8d8d8"/><path d="M29.12,1813.36h-1.5v-1.75h1.5Zm0,8.37h-1.5V1820h1.5Z" fill="#d8d8d8"/><path d="M31.62,1808a5.06,5.06,0,0,1,10.12,0v8.65a5.06,5.06,0,0,1-10.12,0Zm1.5,8.65a3.56,3.56,0,0,0,7.12,0V1808a3.56,3.56,0,0,0-7.12,0Z" fill="#d8d8d8"/><path d="M44.24,1808a5.06,5.06,0,0,1,10.12,0v8.65a5.06,5.06,0,0,1-10.12,0Zm1.5,8.65a3.56,3.56,0,0,0,7.12,0V1808a3.56,3.56,0,0,0-7.12,0Z" fill="#d8d8d8"/><path d="M11.29,1943H9.79v-17.25h-1v-1.5h2.5Z" fill="#d8d8d8"/><path d="M13.79,1924.22H23.91v1.5L16.32,1943h-1.7l7.62-17.25H13.79Z" fill="#d8d8d8"/><path d="M27.91,1934.6h-1.5v-1.75h1.5Zm0,8.37h-1.5v-1.75h1.5Z" fill="#d8d8d8"/><path d="M30.42,1929.27a5.06,5.06,0,0,1,10.12,0v8.65a5.06,5.06,0,0,1-10.12,0Zm1.5,8.65a3.56,3.56,0,0,0,7.12,0v-8.65a3.56,3.56,0,0,0-7.12,0Z" fill="#d8d8d8"/><path d="M43,1929.27a5.06,5.06,0,0,1,10.12,0v8.65a5.06,5.06,0,0,1-10.12,0Zm1.5,8.65a3.56,3.56,0,0,0,7.12,0v-8.65a3.56,3.56,0,0,0-7.12,0Z" fill="#d8d8d8"/><path d="M10.1,2063.9H8.6v-17.25h-1v-1.5h2.5Z" fill="#d8d8d8"/><path d="M18.85,2045.16a3.86,3.86,0,0,1,3.87,3.87A3.8,3.8,0,0,1,21.4,2052a6.24,6.24,0,1,1-5.12,0,3.89,3.89,0,0,1,2.57-6.8Zm0,17.25a4.75,4.75,0,1,0-4.75-4.75A4.75,4.75,0,0,0,18.85,2062.4Zm0-11a2.37,2.37,0,1,0-2.37-2.37A2.37,2.37,0,0,0,18.85,2051.4Z" fill="#d8d8d8"/><path d="M29.1,2055.53H27.6v-1.75h1.5Zm0,8.37H27.6v-1.75h1.5Z" fill="#d8d8d8"/><path d="M31.6,2050.2a5.06,5.06,0,0,1,10.12,0v8.65a5.06,5.06,0,0,1-10.12,0Zm1.5,8.65a3.56,3.56,0,0,0,7.12,0v-8.65a3.56,3.56,0,0,0-7.12,0Z" fill="#d8d8d8"/><path d="M44.23,2050.2a5.06,5.06,0,0,1,10.12,0v8.65a5.06,5.06,0,0,1-10.12,0Zm1.5,8.65a3.56,3.56,0,0,0,7.12,0v-8.65a3.56,3.56,0,0,0-7.12,0Z" fill="#d8d8d8"/><path d="M10.09,2184.47H8.59v-17.25h-1v-1.5h2.5Z" fill="#d8d8d8"/><path d="M18.86,2184.49H17.11l3.82-6.62a6.16,6.16,0,0,1-5.2-.47,6.24,6.24,0,1,1,8.52-2.27Zm2.35-16.62a4.74,4.74,0,1,0,1.75,6.5A4.74,4.74,0,0,0,21.21,2167.87Z" fill="#d8d8d8"/><path d="M29.12,2176.1h-1.5v-1.75h1.5Zm0,8.37h-1.5v-1.75h1.5Z" fill="#d8d8d8"/><path d="M31.62,2170.77a5.06,5.06,0,0,1,10.12,0v8.65a5.06,5.06,0,0,1-10.12,0Zm1.5,8.65a3.56,3.56,0,0,0,7.12,0v-8.65a3.56,3.56,0,0,0-7.12,0Z" fill="#d8d8d8"/><path d="M44.24,2170.77a5.06,5.06,0,0,1,10.12,0v8.65a5.06,5.06,0,0,1-10.12,0Zm1.5,8.65a3.56,3.56,0,0,0,7.12,0v-8.65a3.56,3.56,0,0,0-7.12,0Z" fill="#d8d8d8"/><path d="M5.47,2305.56v-1.5l7.42-10a3.57,3.57,0,0,0-5.72-4.27,3.37,3.37,0,0,0-.7,1.8H5a5.15,5.15,0,0,1,1-2.7,5.09,5.09,0,0,1,7.07-1.08,5.15,5.15,0,0,1,1,7.12l-6.8,9.15h7.77v1.5Z" fill="#d8d8d8"/><path d="M17.62,2291.87a5.06,5.06,0,0,1,10.12,0v8.65a5.06,5.06,0,0,1-10.12,0Zm1.5,8.65a3.56,3.56,0,0,0,7.12,0v-8.65a3.56,3.56,0,0,0-7.12,0Z" fill="#d8d8d8"/><path d="M31.74,2297.19h-1.5v-1.75h1.5Zm0,8.37h-1.5v-1.75h1.5Z" fill="#d8d8d8"/><path d="M34.24,2291.87a5.06,5.06,0,0,1,10.12,0v8.65a5.06,5.06,0,0,1-10.12,0Zm1.5,8.65a3.56,3.56,0,0,0,7.12,0v-8.65a3.56,3.56,0,0,0-7.12,0Z" fill="#d8d8d8"/><path d="M46.87,2291.87a5.06,5.06,0,0,1,10.12,0v8.65a5.06,5.06,0,0,1-10.12,0Zm1.5,8.65a3.56,3.56,0,0,0,7.12,0v-8.65a3.56,3.56,0,0,0-7.12,0Z" fill="#d8d8d8"/><path d="M9.28,2426.47V2425l7.42-10a3.57,3.57,0,0,0-5.72-4.27,3.37,3.37,0,0,0-.7,1.8H8.78a5.13,5.13,0,0,1,8.1-3.77,5.15,5.15,0,0,1,1,7.12l-6.8,9.15H18.9v1.5Z" fill="#d8d8d8"/><path d="M23.93,2426.47h-1.5v-17.25h-1v-1.5h2.5Z" fill="#d8d8d8"/><path d="M27.93,2418.09h-1.5v-1.75h1.5Zm0,8.37h-1.5v-1.75h1.5Z" fill="#d8d8d8"/><path d="M30.43,2412.77a5.06,5.06,0,0,1,10.12,0v8.65a5.06,5.06,0,0,1-10.12,0Zm1.5,8.65a3.56,3.56,0,0,0,7.12,0v-8.65a3.56,3.56,0,0,0-7.12,0Z" fill="#d8d8d8"/><path d="M43.05,2412.77a5.06,5.06,0,0,1,10.12,0v8.65a5.06,5.06,0,0,1-10.12,0Zm1.5,8.65a3.56,3.56,0,0,0,7.12,0v-8.65a3.56,3.56,0,0,0-7.12,0Z" fill="#d8d8d8"/><path d="M5.45,2547.22v-1.5l7.42-10a3.57,3.57,0,0,0-5.72-4.27,3.38,3.38,0,0,0-.7,1.8H5a5.15,5.15,0,0,1,1-2.7,5.09,5.09,0,0,1,7.07-1.08,5.15,5.15,0,0,1,1,7.12l-6.8,9.15h7.77v1.5Z" fill="#d8d8d8"/><path d="M18.1,2547.22v-1.5l7.42-10a3.57,3.57,0,0,0-5.72-4.27,3.38,3.38,0,0,0-.7,1.8H17.6a5.15,5.15,0,0,1,1-2.7,5.09,5.09,0,0,1,7.07-1.08,5.15,5.15,0,0,1,1,7.12l-6.8,9.15h7.77v1.5Z" fill="#d8d8d8"/><path d="M31.75,2538.85h-1.5v-1.75h1.5Zm0,8.37h-1.5v-1.75h1.5Z" fill="#d8d8d8"/><path d="M34.25,2533.53a5.06,5.06,0,0,1,10.12,0v8.65a5.06,5.06,0,0,1-10.12,0Zm1.5,8.65a3.56,3.56,0,0,0,7.12,0v-8.65a3.56,3.56,0,0,0-7.12,0Z" fill="#d8d8d8"/><path d="M46.88,2533.53a5.06,5.06,0,0,1,10.12,0v8.65a5.06,5.06,0,0,1-10.12,0Zm1.5,8.65a3.56,3.56,0,0,0,7.12,0v-8.65a3.56,3.56,0,0,0-7.12,0Z" fill="#d8d8d8"/><path d="M5.47,2667.71v-1.5l7.42-10a3.57,3.57,0,0,0-5.72-4.27,3.37,3.37,0,0,0-.7,1.8H5a5.15,5.15,0,0,1,1-2.7,5.09,5.09,0,0,1,7.07-1.07,5.15,5.15,0,0,1,1,7.12l-6.8,9.15h7.77v1.5Z" fill="#d8d8d8"/><path d="M17.62,2654a5.06,5.06,0,1,1,7.7,4.32,5.06,5.06,0,0,1-2.65,9.37,5,5,0,0,1-5-5h1.5a3.56,3.56,0,1,0,3.55-3.57v-1.5a3.56,3.56,0,1,0-3.55-3.57Z" fill="#d8d8d8"/><path d="M31.74,2659.34h-1.5v-1.75h1.5Zm0,8.37h-1.5V2666h1.5Z" fill="#d8d8d8"/><path d="M34.24,2654a5.06,5.06,0,0,1,10.12,0v8.65a5.06,5.06,0,0,1-10.12,0Zm1.5,8.65a3.56,3.56,0,0,0,7.12,0V2654a3.56,3.56,0,0,0-7.12,0Z" fill="#d8d8d8"/><path d="M46.87,2654A5.06,5.06,0,0,1,57,2654v8.65a5.06,5.06,0,0,1-10.12,0Zm1.5,8.65a3.56,3.56,0,0,0,7.12,0V2654a3.56,3.56,0,0,0-7.12,0Z" fill="#d8d8d8"/><path d="M5,2780.67a5.06,5.06,0,0,1,10.12,0v8.65a5.06,5.06,0,0,1-10.12,0Zm1.5,8.65a3.56,3.56,0,0,0,7.12,0v-8.65a3.56,3.56,0,0,0-7.12,0Z" fill="#d8d8d8"/><path d="M17.6,2780.67a5.06,5.06,0,0,1,10.12,0v8.65a5.06,5.06,0,0,1-10.12,0Zm1.5,8.65a3.56,3.56,0,0,0,7.12,0v-8.65a3.56,3.56,0,0,0-7.12,0Z" fill="#d8d8d8"/><path d="M31.73,2786h-1.5v-1.75h1.5Zm0,8.37h-1.5v-1.75h1.5Z" fill="#d8d8d8"/><path d="M34.23,2780.67a5.06,5.06,0,0,1,10.12,0v8.65a5.06,5.06,0,0,1-10.12,0Zm1.5,8.65a3.56,3.56,0,0,0,7.12,0v-8.65a3.56,3.56,0,0,0-7.12,0Z" fill="#d8d8d8"/><path d="M46.85,2780.67a5.06,5.06,0,0,1,10.12,0v8.65a5.06,5.06,0,0,1-10.12,0Zm1.5,8.65a3.56,3.56,0,0,0,7.12,0v-8.65a3.56,3.56,0,0,0-7.12,0Z" fill="#d8d8d8"/></g></g></g></svg>